<svg width="300" height="300" viewBox="0 0 300 300" fill="none" xmlns="http://www.w3.org/2000/svg">
<g clip-path="url(#clip0_285_67)">
<path d="M220.6 170.8H300.2C290.1 243.8 227.4 300 151.6 300C75.8 300 13.2 243.8 3 170.8H82.6C91.5 200.4 119 222 151.5 222C184.2 222 211.7 200.4 220.6 170.8Z" fill="white"/>
<path d="M82.6996 129.2H3.09961C13.1996 56.2 75.8996 0 151.7 0C227.5 0 290.1 56.2 300.3 129.2H220.7C211.8 99.6 184.3 78 151.7 78C119.1 78 91.5996 99.6 82.6996 129.2Z" fill="white"/>
<path d="M151.701 196.4C177.327 196.4 198.101 175.626 198.101 150C198.101 124.374 177.327 103.6 151.701 103.6C126.075 103.6 105.301 124.374 105.301 150C105.301 175.626 126.075 196.4 151.701 196.4Z" fill="white"/>
</g>
<defs>
<clipPath id="clip0_285_67">
<rect width="300" height="300" fill="white"/>
</clipPath>
</defs>
</svg>
