<svg id="Capa_1" data-name="Capa 1" xmlns="http://www.w3.org/2000/svg" viewBox="0 0 1282.79 99.96"><defs><style>.cls-1{fill:#69c5d7;}.cls-2{fill:#9fd7e4;}</style></defs><rect class="cls-1" x="0.02" width="1283.49" height="99.96"/><polygon class="cls-2" points="1093.4 99.98 1045.88 49.98 1140.93 49.98 1093.4 99.98"/><polygon class="cls-2" points="998.35 99.98 950.83 49.98 1045.88 49.98 998.35 99.98"/><polygon class="cls-2" points="903.26 99.98 855.74 49.98 950.79 49.98 903.26 99.98"/><polygon class="cls-2" points="808.18 99.98 760.65 49.98 855.7 49.98 808.18 99.98"/><polygon class="cls-2" points="713.09 99.98 665.56 49.98 760.61 49.98 713.09 99.98"/><polygon class="cls-2" points="618 99.98 570.47 49.98 665.52 49.98 618 99.98"/><polygon class="cls-2" points="522.91 99.98 475.39 49.98 570.44 49.98 522.91 99.98"/><polygon class="cls-2" points="427.82 99.98 380.3 49.98 475.35 49.98 427.82 99.98"/><polygon class="cls-2" points="332.74 99.98 285.21 49.98 380.26 49.98 332.74 99.98"/><polygon class="cls-2" points="237.65 99.98 190.12 49.98 285.17 49.98 237.65 99.98"/><polygon class="cls-2" points="142.56 99.98 95.03 49.98 190.09 49.98 142.56 99.98"/><polygon class="cls-2" points="47.47 99.98 -0.06 49.98 95 49.98 47.47 99.98"/><polygon class="cls-2" points="1188.46 99.98 1140.93 49.98 1235.98 49.98 1188.46 99.98"/><polygon class="cls-2" points="1283.51 49.97 1283.51 99.97 1235.98 49.97 1283.51 49.97"/><polygon class="cls-2" points="1045.91 -0.02 998.39 49.98 1093.44 49.98 1045.91 -0.02"/><polygon class="cls-2" points="950.86 -0.02 903.34 49.98 998.39 49.98 950.86 -0.02"/><polygon class="cls-2" points="855.77 -0.02 808.25 49.98 903.3 49.98 855.77 -0.02"/><polygon class="cls-2" points="760.69 -0.02 713.16 49.98 808.21 49.98 760.69 -0.02"/><polygon class="cls-2" points="665.6 -0.02 618.07 49.98 713.12 49.98 665.6 -0.02"/><polygon class="cls-2" points="570.51 -0.02 522.98 49.98 618.04 49.98 570.51 -0.02"/><polygon class="cls-2" points="475.42 -0.02 427.9 49.98 522.95 49.98 475.42 -0.02"/><polygon class="cls-2" points="380.33 -0.02 332.81 49.98 427.86 49.98 380.33 -0.02"/><polygon class="cls-2" points="285.25 -0.02 237.72 49.98 332.77 49.98 285.25 -0.02"/><polygon class="cls-2" points="190.16 -0.02 142.63 49.98 237.68 49.98 190.16 -0.02"/><polygon class="cls-2" points="95.07 -0.02 47.54 49.98 142.59 49.98 95.07 -0.02"/><polygon class="cls-2" points="47.51 49.97 0.02 49.97 0.02 0.01 47.51 49.97"/><polygon class="cls-2" points="1140.97 -0.02 1093.44 49.98 1188.49 49.98 1140.97 -0.02"/><polygon class="cls-2" points="1236.02 -0.02 1188.49 49.98 1283.54 49.98 1236.02 -0.02"/></svg>