<svg width="1287" height="709" viewBox="0 0 1287 709" fill="none" xmlns="http://www.w3.org/2000/svg">
<g clip-path="url(#clip0_244_2)">
<path opacity="0.3" fill-rule="evenodd" clip-rule="evenodd" d="M319.514 230.297C312.807 235.87 303.37 236.73 295.806 232.628L262.543 269.717C267.58 277.097 267.506 287.043 262.038 294.386C182.478 352.772 70.2795 349.574 -6.10497 281.07C-82.798 212.289 -97.96 100.477 -47.8228 14.9187C-41.3572 9.54633 -32.3551 8.55309 -24.9398 12.1632L8.6415 -25.2811C4.12328 -32.5707 4.3768 -42.0836 9.65485 -49.1714C89.2152 -107.556 201.413 -104.359 277.797 -35.8548C354.491 32.9263 369.652 144.739 319.514 230.297ZM288.179 226.566L255.712 262.767L184.154 198.592C150.823 219.761 106.219 217.197 75.3783 189.538C44.5372 161.879 37.1507 117.817 54.5806 82.3858L-17.1558 18.0503L15.3111 -18.1515L86.9707 46.1151C120.336 24.7225 165.129 27.2132 196.07 54.9621C227.011 82.7111 234.345 126.969 216.698 162.458L288.179 226.566ZM184.491 164.912C160.896 191.221 120.44 193.422 94.1309 169.826C67.8215 146.231 65.6211 105.776 89.2163 79.4662C112.811 53.1567 153.267 50.9564 179.577 74.5515C205.886 98.1467 208.086 138.602 184.491 164.912ZM105.98 157.058C125.098 174.205 154.497 172.606 171.643 153.487C188.79 134.368 187.191 104.969 168.072 87.8231C148.953 70.6768 119.554 72.2758 102.408 91.3945C85.2618 110.513 86.8608 139.912 105.98 157.058ZM111.256 151.176C127.126 165.408 151.528 164.081 165.761 148.211C179.994 132.341 178.666 107.938 162.796 93.7058C146.927 79.4732 122.524 80.8005 108.291 96.6703C94.0586 112.54 95.3859 136.943 111.256 151.176Z" fill="url(#paint0_linear_244_2)"/>
<path opacity="0.2" fill-rule="evenodd" clip-rule="evenodd" d="M597.035 104.238C599.202 108.608 598.452 113.855 595.242 117.442L611.135 140.332C615.801 138.543 621.204 139.867 624.494 143.789C646.003 194.624 629.782 255.275 582.641 288.005C535.31 320.866 472.502 314.688 432.409 276.36C430.319 272.147 430.94 267.119 433.862 263.549L417.817 240.439C413.267 241.958 408.122 240.592 404.946 236.804C383.44 185.969 399.661 125.32 446.801 92.5912C494.133 59.7291 556.942 65.9087 597.035 104.238ZM590.959 120.81L606.471 143.152L562.309 173.814C569.528 194.686 562.376 218.63 543.342 231.844C524.309 245.059 499.376 243.393 482.343 229.334L438.071 260.072L422.558 237.73L466.783 207.025C459.447 186.105 466.583 162.049 485.679 148.791C504.774 135.533 529.808 137.254 546.844 151.439L590.959 120.81ZM544.022 169.282C555.295 185.519 551.271 207.82 535.034 219.094C518.797 230.367 496.496 226.343 485.223 210.106C473.95 193.869 477.973 171.568 494.21 160.295C510.447 149.022 532.748 153.045 544.022 169.282ZM529.614 210.998C541.413 202.805 544.338 186.599 536.145 174.8C527.953 163.001 511.747 160.077 499.948 168.269C488.149 176.461 485.225 192.667 493.417 204.466C501.609 216.266 517.815 219.19 529.614 210.998ZM527.094 207.367C536.888 200.567 539.315 187.115 532.515 177.321C525.715 167.527 512.263 165.099 502.469 171.899C492.675 178.699 490.247 192.151 497.047 201.946C503.847 211.74 517.299 214.167 527.094 207.367Z" fill="url(#paint1_linear_244_2)"/>
<path opacity="0.5" fill-rule="evenodd" clip-rule="evenodd" d="M203.145 418.963C204.917 422.535 204.304 426.825 201.68 429.758L214.673 448.471C218.487 447.008 222.904 448.091 225.595 451.297C243.179 492.858 229.918 542.442 191.377 569.201C152.682 596.067 101.334 591.015 68.5556 559.68C66.8468 556.237 67.3546 552.126 69.7434 549.207L56.6262 530.315C52.9063 531.556 48.7007 530.439 46.104 527.344C28.5209 485.783 41.7824 436.2 80.3223 409.441C119.018 382.575 170.367 387.627 203.145 418.963ZM198.178 432.511L210.86 450.777L174.755 475.845C180.658 492.909 174.81 512.484 159.249 523.288C143.688 534.092 123.304 532.729 109.379 521.235L73.184 546.365L60.5022 528.099L96.6583 502.996C90.6606 485.893 96.4952 466.226 112.107 455.388C127.718 444.549 148.184 445.955 162.112 457.552L198.178 432.511ZM159.805 472.141C169.021 485.415 165.732 503.647 152.457 512.864C139.183 522.08 120.95 518.791 111.734 505.516C102.517 492.242 105.807 474.009 119.082 464.793C132.356 455.576 150.589 458.866 159.805 472.141ZM148.026 506.245C157.673 499.547 160.063 486.298 153.366 476.652C146.668 467.005 133.419 464.615 123.773 471.312C114.126 478.009 111.736 491.259 118.433 500.905C125.13 510.552 138.38 512.942 148.026 506.245ZM145.965 503.277C153.973 497.717 155.957 486.72 150.398 478.712C144.838 470.705 133.84 468.721 125.833 474.28C117.826 479.84 115.842 490.837 121.401 498.845C126.96 506.852 137.958 508.836 145.965 503.277Z" fill="url(#paint2_linear_244_2)"/>
<path opacity="0.5" fill-rule="evenodd" clip-rule="evenodd" d="M691.509 701.781C684.53 707.58 674.71 708.476 666.84 704.206L632.231 742.796C637.472 750.474 637.395 760.822 631.708 768.463C548.926 829.214 432.183 825.887 352.705 754.609C272.907 683.044 257.131 566.705 309.297 477.683C316.024 472.092 325.391 471.058 333.107 474.814L368.048 435.855C363.347 428.271 363.61 418.374 369.1 410.999C451.882 350.249 568.624 353.576 648.102 424.854C727.9 496.419 743.676 612.758 691.509 701.781ZM658.904 697.899L625.123 735.565L550.668 668.791C515.987 690.819 469.577 688.151 437.487 659.371C405.397 630.592 397.712 584.746 415.847 547.88L341.206 480.94L374.987 443.273L449.549 510.142C484.265 487.883 530.872 490.475 563.066 519.347C595.26 548.22 602.891 594.27 584.529 631.196L658.904 697.899ZM551.018 633.747C526.468 661.122 484.374 663.411 456.999 638.861C429.625 614.31 427.335 572.216 451.886 544.842C476.436 517.467 518.53 515.177 545.905 539.728C573.28 564.278 575.569 606.372 551.018 633.747ZM469.328 625.576C489.221 643.416 519.81 641.753 537.65 621.86C555.491 601.967 553.827 571.378 533.934 553.537C514.041 535.696 483.452 537.36 465.612 557.253C447.771 577.146 449.435 607.735 469.328 625.576ZM474.817 619.455C491.33 634.264 516.721 632.883 531.529 616.37C546.338 599.858 544.957 574.467 528.445 559.658C511.932 544.849 486.542 546.23 471.733 562.742C456.924 579.255 458.305 604.646 474.817 619.455Z" fill="url(#paint3_linear_244_2)"/>
</g>
<defs>
<linearGradient id="paint0_linear_244_2" x1="403.989" y1="1.38552" x2="-129.766" y2="238.752" gradientUnits="userSpaceOnUse">
<stop offset="0.4375" stop-color="white"/>
<stop offset="0.9999" stop-color="white" stop-opacity="0.0965517"/>
<stop offset="1" stop-color="white" stop-opacity="0"/>
</linearGradient>
<linearGradient id="paint1_linear_244_2" x1="483.355" y1="28.7195" x2="543.649" y2="349.843" gradientUnits="userSpaceOnUse">
<stop offset="0.4375" stop-color="white"/>
<stop offset="0.9999" stop-color="white" stop-opacity="0.0965517"/>
<stop offset="1" stop-color="white" stop-opacity="0"/>
</linearGradient>
<linearGradient id="paint2_linear_244_2" x1="110.207" y1="357.223" x2="159.501" y2="619.757" gradientUnits="userSpaceOnUse">
<stop offset="0.4375" stop-color="white"/>
<stop offset="0.9999" stop-color="white" stop-opacity="0.0965517"/>
<stop offset="1" stop-color="white" stop-opacity="0"/>
</linearGradient>
<linearGradient id="paint3_linear_244_2" x1="779.403" y1="463.602" x2="224.039" y2="710.58" gradientUnits="userSpaceOnUse">
<stop offset="0.4375" stop-color="white"/>
<stop offset="0.9999" stop-color="white" stop-opacity="0.0965517"/>
<stop offset="1" stop-color="white" stop-opacity="0"/>
</linearGradient>
<clipPath id="clip0_244_2">
<rect width="1287" height="709" fill="white"/>
</clipPath>
</defs>
</svg>
