<svg width="269" height="198" viewBox="0 0 269 198" fill="none" xmlns="http://www.w3.org/2000/svg">
<g clip-path="url(#clip0_215_337)">
<path fill-rule="evenodd" clip-rule="evenodd" d="M182.483 198.445C172.9 141.44 158.379 69.0571 149.123 70.3603C143.046 71.2159 130.457 78.4835 117.081 86.2063C99.0406 96.6214 79.5662 107.865 72.6922 105.326C66.1418 102.907 47.7359 72.3298 31.1276 44.7389C17.3835 21.9062 4.87045 1.11873 1.32614 0.0267912C-6.5011 -2.38464 22.5057 158.78 31.2538 164.406C35.5574 167.174 46.8809 163.912 58.0434 160.696C69.5715 157.374 80.9279 154.103 84.2028 157.574C87.2663 160.821 87.4482 179.169 86.6407 198.445H182.483Z" fill="#E45F40"/>
</g>
<defs>
<clipPath id="clip0_215_337">
<rect width="269" height="198" fill="white"/>
</clipPath>
</defs>
</svg>
