<svg width="300" height="300" viewBox="0 0 300 300" fill="none" xmlns="http://www.w3.org/2000/svg">
<path d="M149.5 299.5C232.067 299.5 299 232.567 299 150C299 67.4334 232.067 0.5 149.5 0.5C66.9334 0.5 0 67.4334 0 150C0 232.567 66.9334 299.5 149.5 299.5Z" fill="#373636"/>
<path d="M218.5 170.8H298.1C288 243.8 225.3 300 149.5 300C73.6999 300 11.0999 243.8 0.899902 170.8H80.5999C89.4999 200.4 117 222 149.5 222C182.1 222 209.5 200.4 218.5 170.8Z" fill="white"/>
<path d="M80.6 129.2H1C11.1 56.2 73.8 0 149.6 0C225.4 0 288 56.2 298.1 129.2H218.5C209.6 99.6 182.1 78 149.6 78C117 78 89.5 99.6 80.6 129.2Z" fill="#F6553B"/>
<path d="M149.5 196.4C175.126 196.4 195.9 175.626 195.9 150C195.9 124.374 175.126 103.6 149.5 103.6C123.874 103.6 103.1 124.374 103.1 150C103.1 175.626 123.874 196.4 149.5 196.4Z" fill="white"/>
</svg>
