<svg width="80" height="80" viewBox="0 0 80 80" fill="none" xmlns="http://www.w3.org/2000/svg">
<path fill-rule="evenodd" clip-rule="evenodd" d="M46.5133 52.6492C43.7762 54.3076 40.5651 55.2623 37.1311 55.2623C27.1176 55.2623 19 47.1447 19 37.1311C19 27.1176 27.1176 19 37.1311 19C47.1447 19 55.2623 27.1176 55.2623 37.1311C55.2623 40.5649 54.3078 43.7757 52.6496 46.5127L59.3434 53.2065C61.0379 54.9011 61.0379 57.6484 59.3434 59.3429C57.6489 61.0374 54.9015 61.0374 53.207 59.3429L46.5133 52.6492ZM47.5138 37.1307C47.5138 42.865 42.8652 47.5135 37.131 47.5135C31.3967 47.5135 26.7482 42.865 26.7482 37.1307C26.7482 31.3965 31.3967 26.748 37.131 26.748C42.8652 26.748 47.5138 31.3965 47.5138 37.1307Z" fill="#7D7D7D"/>
</svg>
