<svg width="300" height="300" viewBox="0 0 300 300" fill="none" xmlns="http://www.w3.org/2000/svg">
<path d="M150.5 299.5C233.067 299.5 300 232.567 300 150C300 67.4334 233.067 0.5 150.5 0.5C67.9334 0.5 1 67.4334 1 150C1 232.567 67.9334 299.5 150.5 299.5Z" fill="#373636"/>
<path d="M219.4 170.8H299C288.9 243.8 226.2 300 150.4 300C74.6 300 12 243.8 1.80005 170.8H81.4C90.3 200.4 117.8 222 150.3 222C183 222 210.5 200.4 219.4 170.8Z" fill="white"/>
<path d="M81.6 129.2H2C12.1 56.2 74.8 0 150.6 0C226.4 0 289 56.2 299.2 129.2H219.6C210.7 99.6 183.2 78 150.6 78C118 78 90.5 99.6 81.6 129.2Z" fill="#3B8DF6"/>
<path d="M57.3001 98.9L15.0001 83C10.3001 81.2 8.20005 75.7 10.6 71.2C20.1 53.9 32.7001 38.6 47.7001 25.9C52.2001 22.1 59 24 60.9 29.5L78.0001 78.6C82.4001 91.5 69.9001 103.7 57.3001 98.9Z" fill="#F6553B"/>
<path d="M286.1 83.0001L241.7 99.6001C229.9 104 218.2 92.7001 222.4 80.7001L240.2 29.6001C242.1 24.1001 249 22.2001 253.4 26.0001C268.4 38.6001 281 54.0001 290.5 71.3001C292.9 75.7001 290.8 81.3001 286.1 83.0001Z" fill="#F6553B"/>
<path d="M150.5 196.4C176.126 196.4 196.9 175.626 196.9 150C196.9 124.374 176.126 103.6 150.5 103.6C124.874 103.6 104.1 124.374 104.1 150C104.1 175.626 124.874 196.4 150.5 196.4Z" fill="white"/>
</svg>
