<svg width="301" height="300" viewBox="0 0 301 300" fill="none" xmlns="http://www.w3.org/2000/svg">
<g clip-path="url(#clip0_262_250)">
<path d="M149.5 299.5C232.067 299.5 299 232.567 299 150C299 67.4334 232.067 0.5 149.5 0.5C66.9334 0.5 0 67.4334 0 150C0 232.567 66.9334 299.5 149.5 299.5Z" fill="#373636"/>
<path d="M218.5 170.8H298.1C288 243.8 225.3 300 149.5 300C73.6999 300 11.0999 243.8 0.899902 170.8H80.5999C89.4999 200.4 117 222 149.5 222C182.1 222 209.5 200.4 218.5 170.8Z" fill="white"/>
<path d="M298.1 129.2H218.5C213.9 113.9 204.3 100.8 191.7 91.6C179.8 83 165.3 78 149.5 78C133.7 78 119.2 83.1 107.3 91.6C94.6999 100.7 85.0999 113.9 80.4999 129.2H0.899902C5.8999 93.4 23.4999 61.6 49.0999 38.6C65.5999 23.7 85.3999 12.4 107.3 6C120.7 2.1 134.8 0 149.5 0C164.1 0 178.3 2.1 191.7 6C213.6 12.4 233.4 23.7 249.9 38.6C275.5 61.6 293.1 93.4 298.1 129.2Z" fill="#252424"/>
<path d="M107.4 6V91.6C94.7998 100.7 85.1999 113.9 80.5999 129.2H49.0999V38.6C65.5999 23.7 85.3998 12.4 107.4 6Z" fill="#F8D24C"/>
<path d="M249.9 38.6V129.2H218.4C213.8 113.9 204.2 100.8 191.6 91.6V6C213.6 12.4 233.4 23.7 249.9 38.6Z" fill="#F8D24C"/>
<path d="M149.5 196.4C175.126 196.4 195.9 175.626 195.9 150C195.9 124.374 175.126 103.6 149.5 103.6C123.874 103.6 103.1 124.374 103.1 150C103.1 175.626 123.874 196.4 149.5 196.4Z" fill="white"/>
</g>
<defs>
<clipPath id="clip0_262_250">
<rect width="300" height="300" fill="white" transform="translate(0.298584)"/>
</clipPath>
</defs>
</svg>
